<?xml version="1.0" encoding="UTF-8"?>
<svg id="Capa_1" xmlns="http://www.w3.org/2000/svg" version="1.1" xmlns:xlink="http://www.w3.org/1999/xlink" viewBox="0 0 602.8 233.6">
  <!-- Generator: Adobe Illustrator 29.2.1, SVG Export Plug-In . SVG Version: 2.1.0 Build 116)  -->
  <defs>
    <style>
      .st0 {
        fill: #fff;
      }
    </style>
  </defs>
  <g>
    <path class="st0" d="M136.5,24.4l26.2,23,14.7-29,13.8,31.9,26.4-22.1-1.1,34.8,36.3-15c-19.4-21.6-47.6-35.3-78.9-35.3-58.5,0-106,47.4-106,106s25.4,79.7,61.9,96.4l3-39.8-31.3,11.5,13.1-31-36.7-1.2,25.9-25.6-32.5-15.2,31.3-10.4-22.7-25.9,37.4-.6-13.5-33.3,33.3,16.4-.6-35.6Z"/>
    <path class="st0" d="M244.8,136.5c0-.3.1-.7.2-1l16.1-6,16.4-6.2-15.7-7.8-15.7-7.7c0-.4,0-.7-.1-1.1l12.4-11.8,12.7-12.1-17.5-1-15.5-.9h-.8c-.4,0-.7-.1-1.1-.2-42.6-3.3-66.9,23.6-66.9,23.6-33.3,40-10.7,83.8-10.7,83.8l.7,1.8,5.6,14.5,6.3,16.4,7.6-15.8,7.1-14.8,11.3,12,12.1,12.7,1-17.5.9-15.9c.3-.2.7-.4,1-.6l15.2,6.7,16.1,7.1-5.8-16.5-5.2-14.6c.4-.6.7-1,.7-1,.2-.4.5-.7.7-1.1l16.4.5,17.5.5-11.6-13.1-11.4-12.9ZM230.4,160.8c-.2.3-18.4,27.1-56.8,27.1-4.6,0-9.5-.4-14.8-1.3l-.3,1.7c-1.5-76.2,58.7-100.3,76.5-105.8,3,5.7,20,42.1-4.6,78.3Z"/>
    <g>
      <path class="st0" d="M197.8,120.7s0,0,.1,0l7.2-1.2c.5,0,.8-.5.7-1,0-.5-.5-.8-1-.7l-7.2,1.2c-.5,0-.8.5-.7,1,0,.4.4.7.8.7Z"/>
      <path class="st0" d="M219.5,120.6l5.5,2.4c.1,0,.2,0,.3,0,.3,0,.6-.2.8-.5.2-.4,0-.9-.4-1.1l-5.5-2.4c-.4-.2-.9,0-1.1.4-.2.4,0,.9.4,1.1Z"/>
      <path class="st0" d="M208.6,125.5c.2-.4.1-.9-.3-1.2-.4-.2-.9-.1-1.2.3-3.8,6.4-10.4,2.9-10.7,2.7-.4-.2-.9,0-1.1.3-.2.4,0,.9.3,1.1,0,0,2.4,1.3,5.3,1.3s5.5-1,7.7-4.6Z"/>
      <path class="st0" d="M228.5,128.9c-.2-.4-.7-.6-1.1-.3-.3.2-7,3.7-10.7-2.7-.2-.4-.8-.5-1.2-.3-.4.2-.5.8-.3,1.2,2.2,3.6,5.1,4.6,7.7,4.6s5.3-1.3,5.3-1.3c.4-.2.6-.7.3-1.1Z"/>
      <path class="st0" d="M216.5,141.8c-1.7,2-3.5,3.1-5.6,3.2-3.7.3-6.9-2.5-6.9-2.5-.3-.3-.9-.3-1.2,0-.3.3-.3.9,0,1.2.1.1,3.4,3,7.5,3s.4,0,.6,0c2.6-.2,4.8-1.5,6.8-3.9.3-.4.2-.9-.1-1.2-.4-.3-.9-.2-1.2.1Z"/>
    </g>
    <g>
      <path class="st0" d="M152.1,105.1c-.5,0-.8.4-.8.9,0,3.4-1,6.1-2.9,8.2-3.7,3.7-9.8,3.8-9.9,3.8h0c-.5,0-.8.4-.8.8,0,.5.4.8.8.8h0c.5,0,6.9,0,11-4.3,2.3-2.3,3.5-5.5,3.4-9.4,0-.5-.4-.9-.9-.8Z"/>
      <path class="st0" d="M118.7,97c-.4-.3-.9-.2-1.2.2l-5.5,7.2c-.3.4-.2.9.2,1.2.2.1.3.2.5.2s.5-.1.7-.3l5.5-7.2c.3-.4.2-.9-.2-1.2Z"/>
      <path class="st0" d="M138.5,82.8c.1,0,.2,0,.3,0l7-2.9c.4-.2.6-.7.5-1.1s-.7-.6-1.1-.5l-7,2.9c-.4.2-.6.7-.5,1.1.1.3.4.5.8.5Z"/>
      <path class="st0" d="M145.1,85.7c-1.7-.2-3.4.6-4.1,2.1-1,1.9-1.8,5.2-.1,10.1.2.5.6.8,1,.9,0,0,.2,0,.2,0,.4,0,.8-.2,1.1-.5,1-1.2,3.4-3.3,8.7-4.4.6-.1,1.1-.5,1.3-1.1.2-.6.2-1.2-.1-1.7-1.2-1.8-3.7-5-7.9-5.5ZM142.3,96.8c-1.2-4-.6-6.7.2-8.2.2-.5.6-.8,1.1-1-.7.7-1,2.2-.5,3.9.5,1.6,1.5,2.7,2.5,2.9-1.6.8-2.6,1.7-3.3,2.5ZM151.5,92.3c-1.8.3-3.2.8-4.5,1.3.5-.8.6-2.1.2-3.5-.4-1.3-1.1-2.3-1.9-2.7,3.2.6,5.3,3.2,6.3,4.7v.2Z"/>
      <path class="st0" d="M131,104.3c-1.7-1.3-5.2-3.3-9.3-2.5-1.7.4-2.9,1.7-3.1,3.4-.3,2.1.1,5.5,3.4,9.5.3.3.6.5,1,.5s.2,0,.2,0c.5,0,.9-.4,1-.9h0c.5-1.5,2-4.3,6.6-7.1.5-.3.8-.9.9-1.4,0-.6-.2-1.2-.7-1.5ZM122.9,113.3c-2.6-3.4-2.9-6.1-2.7-7.8,0-.5.3-1,.7-1.3-.5.9-.1,2.4.9,3.8,1,1.3,2.4,2,3.3,1.9-1.2,1.3-1.8,2.5-2.2,3.4ZM126.3,108.7c.2-.9-.2-2.2-1-3.3-.8-1.1-1.9-1.8-2.8-1.9.4,0,.9-.1,1.3-.1,2.7,0,5,1.4,6.3,2.3v.2c-1.5.9-2.8,1.9-3.7,2.8Z"/>
    </g>
  </g>
  <g>
    <g>
      <g>
        <path class="st0" d="M447.8,88.2c-2.9,0-4.4-1.4-5.5-2.4-1-.9-1.6-1.4-3-1.4s-2,.5-3,1.4c-1.1,1-2.7,2.4-5.5,2.4s-4.4-1.4-5.5-2.4c-1-.9-1.6-1.4-3-1.4s-1.9-.9-1.9-1.9.9-1.9,1.9-1.9c2.9,0,4.4,1.4,5.5,2.4,1,.9,1.6,1.4,3,1.4s2-.5,3-1.4c1.1-1,2.7-2.4,5.5-2.4s4.4,1.4,5.5,2.4c1,.9,1.6,1.4,3,1.4s2-.5,3-1.4c1.1-1,2.7-2.4,5.5-2.4s1.9.9,1.9,1.9-.9,1.9-1.9,1.9-2,.5-3,1.4c-1.1,1-2.7,2.4-5.5,2.4Z"/>
        <path class="st0" d="M447.8,97.1c-2.9,0-4.4-1.4-5.5-2.4-1-.9-1.6-1.4-3-1.4s-2,.5-3,1.4c-1.1,1-2.7,2.4-5.5,2.4s-4.4-1.4-5.5-2.4c-1-.9-1.6-1.4-3-1.4s-1.9-.9-1.9-1.9.9-1.9,1.9-1.9c2.9,0,4.4,1.4,5.5,2.4,1,.9,1.6,1.4,3,1.4s2-.5,3-1.4c1.1-1,2.7-2.4,5.5-2.4s4.4,1.4,5.5,2.4c1,.9,1.6,1.4,3,1.4s2-.5,3-1.4c1.1-1,2.7-2.4,5.5-2.4s1.9.9,1.9,1.9-.9,1.9-1.9,1.9-2,.5-3,1.4c-1.1,1-2.7,2.4-5.5,2.4Z"/>
        <path class="st0" d="M447.8,106c-2.9,0-4.4-1.4-5.5-2.4-1-.9-1.6-1.4-3-1.4s-2,.5-3,1.4c-1.1,1-2.7,2.4-5.5,2.4s-4.4-1.4-5.5-2.4c-1-.9-1.6-1.4-3-1.4s-1.9-.9-1.9-1.9.9-1.9,1.9-1.9c2.9,0,4.4,1.4,5.5,2.4,1,.9,1.6,1.4,3,1.4s2-.5,3-1.4c1.1-1,2.7-2.4,5.5-2.4s4.4,1.4,5.5,2.4c1,.9,1.6,1.4,3,1.4s2-.5,3-1.4c1.1-1,2.7-2.4,5.5-2.4s1.9.9,1.9,1.9-.9,1.9-1.9,1.9-2,.5-3,1.4c-1.1,1-2.7,2.4-5.5,2.4Z"/>
        <path class="st0" d="M447.8,114.9c-2.9,0-4.4-1.4-5.5-2.4-1-.9-1.6-1.4-3-1.4s-2,.5-3,1.4c-1.1,1-2.7,2.4-5.5,2.4s-4.4-1.4-5.5-2.4c-1-.9-1.6-1.4-3-1.4s-1.9-.9-1.9-1.9.9-1.9,1.9-1.9c2.9,0,4.4,1.4,5.5,2.4,1,.9,1.6,1.4,3,1.4s2-.5,3-1.4c1.1-1,2.7-2.4,5.5-2.4s4.4,1.4,5.5,2.4c1,.9,1.6,1.4,3,1.4s2-.5,3-1.4c1.1-1,2.7-2.4,5.5-2.4s1.9.9,1.9,1.9-.9,1.9-1.9,1.9-2,.5-3,1.4c-1.1,1-2.7,2.4-5.5,2.4Z"/>
      </g>
      <g>
        <path class="st0" d="M301.2,70.4c-.7,0-1.3-.3-1.8-.8-.5-.5-.8-1.1-.8-1.8v-28.2c0-.8.3-1.4.8-2,.5-.6,1.1-.9,1.9-.9,2.7-.3,5.5-.4,8.4-.4,4.6,0,8,.9,10.3,2.6,2.3,1.7,3.4,4.2,3.4,7.4s-.6,3.9-1.8,5.6c-1.2,1.6-2.8,2.8-4.7,3.5,0,0,0,0,0,0,0,0,0,0,0,0,1.5.9,2.8,2.7,3.8,5.4l2.6,7c.2.6.1,1.1-.2,1.7-.4.5-.9.8-1.5.8h-2.8c-.8,0-1.5-.2-2.2-.7-.6-.5-1.1-1.1-1.3-1.8l-2.3-6.6c-.4-1.3-1-2.2-1.6-2.6-.6-.5-1.6-.7-2.9-.7h-1.9c-.2,0-.4.1-.4.4v9.4c0,.7-.3,1.3-.8,1.8s-1.1.8-1.8.8h-2.4ZM306.2,42.9v8.9c0,.3.1.4.4.4h2.2c2.2,0,3.8-.5,4.9-1.4,1.1-.9,1.7-2.2,1.7-3.8,0-3.2-2.1-4.8-6.3-4.8s-1.8,0-2.5.2c-.3,0-.4.2-.4.5Z"/>
        <path class="st0" d="M353.3,66.3c-2.8,3.1-6.7,4.6-11.5,4.6s-8.7-1.5-11.5-4.6c-2.8-3.1-4.2-7.3-4.2-12.7s1.4-9.6,4.2-12.7c2.8-3.1,6.7-4.6,11.5-4.6s8.7,1.5,11.5,4.6c2.8,3.1,4.2,7.3,4.2,12.7s-1.4,9.6-4.2,12.7ZM349.6,53.6c0-7.2-2.6-10.8-7.7-10.8s-7.7,3.6-7.7,10.8,2.6,10.8,7.7,10.8,7.7-3.6,7.7-10.8Z"/>
        <path class="st0" d="M371.9,57c-3.9-1.2-6.7-2.8-8.4-4.6-1.7-1.8-2.6-4.1-2.6-6.7s1-5.2,3-6.8c2-1.7,4.9-2.5,8.6-2.5s5.4.3,7.7,1c.7.2,1.3.7,1.8,1.3.4.7.7,1.4.7,2.2v1.3c0,.6-.3,1.1-.8,1.4-.5.3-1.1.4-1.7.2-2.6-.9-5-1.4-7.2-1.4s-4.2,1.1-4.2,3.3,1.2,3.2,3.7,4c4.2,1.3,7.2,2.8,8.8,4.5,1.6,1.7,2.5,4,2.5,6.8,0,6.6-4.2,9.9-12.5,9.9s-5-.4-7.2-1.2c-.7-.3-1.3-.8-1.7-1.5s-.6-1.5-.6-2.3v-1.5c0-.6.2-1,.7-1.3.5-.3,1-.3,1.5,0,2.2,1.1,4.5,1.7,6.9,1.7s2.9-.3,3.7-.9c.8-.6,1.3-1.5,1.3-2.7s-.3-1.8-.9-2.5c-.6-.6-1.6-1.2-3-1.7Z"/>
        <path class="st0" d="M388.4,70.4c-.6,0-1.2-.3-1.5-.8-.4-.5-.5-1.1-.3-1.7l9.3-28.7c.2-.7.7-1.3,1.3-1.8.6-.5,1.3-.7,2.1-.7h3c.8,0,1.5.2,2.2.7.6.5,1.1,1.1,1.3,1.8l9.3,28.7c.2.6.1,1.2-.3,1.7-.4.5-.9.8-1.5.8h-3.1c-.8,0-1.5-.2-2.1-.7-.6-.5-1-1.1-1.2-1.8l-1.1-4.4c0-.2-.2-.4-.5-.4h-9.2c-.2,0-.4.1-.5.4l-1.1,4.4c-.2.7-.6,1.3-1.2,1.8-.6.5-1.3.7-2.1.7h-2.9ZM400.7,43.6l-3.4,13.2c0,0,0,.2,0,.3,0,0,.2.1.3.1h6.2c0,0,.2,0,.3-.1s0-.2,0-.3l-3.4-13.2s0,0,0,0,0,0,0,0Z"/>
        <path class="st0" d="M421.9,70.4c-.7,0-1.3-.3-1.8-.8-.5-.5-.8-1.1-.8-1.8v-28.2c0-.8.3-1.4.8-2,.5-.6,1.1-.9,1.9-.9,2.7-.3,5.5-.4,8.4-.4,4.6,0,8,.9,10.3,2.6,2.3,1.7,3.4,4.2,3.4,7.4s-.6,3.9-1.8,5.6c-1.2,1.6-2.8,2.8-4.7,3.5,0,0,0,0,0,0,0,0,0,0,0,0,1.5.9,2.8,2.7,3.8,5.4l2.6,7c.2.6.1,1.1-.2,1.7-.4.5-.9.8-1.5.8h-2.8c-.8,0-1.5-.2-2.2-.7-.6-.5-1.1-1.1-1.3-1.8l-2.3-6.6c-.4-1.3-1-2.2-1.6-2.6-.6-.5-1.6-.7-2.9-.7h-1.9c-.2,0-.4.1-.4.4v9.4c0,.7-.3,1.3-.8,1.8s-1.1.8-1.8.8h-2.4ZM427,42.9v8.9c0,.3.1.4.4.4h2.2c2.2,0,3.8-.5,4.9-1.4,1.1-.9,1.7-2.2,1.7-3.8,0-3.2-2.1-4.8-6.3-4.8s-1.8,0-2.5.2c-.3,0-.4.2-.4.5Z"/>
        <path class="st0" d="M452.6,70.4c-.7,0-1.3-.3-1.8-.8-.5-.5-.8-1.1-.8-1.8v-28.4c0-.7.3-1.3.8-1.8.5-.5,1.1-.8,1.8-.8h3.4c.7,0,1.3.3,1.8.8.5.5.8,1.1.8,1.8v28.4c0,.7-.3,1.3-.8,1.8-.5.5-1.1.8-1.8.8h-3.4Z"/>
        <path class="st0" d="M467.8,43.3c-.7,0-1.3-.3-1.8-.8-.5-.5-.8-1.1-.8-1.8v-1.2c0-.7.3-1.3.8-1.8s1.1-.8,1.8-.8h20.6c.7,0,1.3.3,1.8.8.5.5.8,1.1.8,1.8v1.2c0,.7-.3,1.3-.8,1.8s-1.1.8-1.8.8h-5.9c-.2,0-.4.1-.4.4v24.2c0,.7-.3,1.3-.8,1.8s-1.1.8-1.8.8h-2.8c-.7,0-1.3-.3-1.8-.8-.5-.5-.8-1.1-.8-1.8v-24.2c0-.2-.1-.4-.4-.4h-5.9Z"/>
        <path class="st0" d="M520.2,66.3c-2.8,3.1-6.7,4.6-11.5,4.6s-8.7-1.5-11.5-4.6c-2.8-3.1-4.2-7.3-4.2-12.7s1.4-9.6,4.2-12.7c2.8-3.1,6.7-4.6,11.5-4.6s8.7,1.5,11.5,4.6c2.8,3.1,4.2,7.3,4.2,12.7s-1.4,9.6-4.2,12.7ZM516.4,53.6c0-7.2-2.6-10.8-7.7-10.8s-7.7,3.6-7.7,10.8,2.6,10.8,7.7,10.8,7.7-3.6,7.7-10.8Z"/>
        <path class="st0" d="M305.7,111.1l-9.3-28.7c-.2-.6-.1-1.2.3-1.7.4-.5.9-.8,1.5-.8h3.1c.8,0,1.5.2,2.1.7.6.5,1,1.1,1.2,1.8l6,23.6s0,0,0,0,0,0,0,0l6.2-23.6c.2-.7.6-1.3,1.2-1.8.6-.5,1.3-.7,2.1-.7h2.9c.6,0,1.2.3,1.5.8.4.5.5,1.1.3,1.7l-9.3,28.7c-.2.7-.6,1.3-1.3,1.8-.6.5-1.3.7-2.1.7h-3c-.8,0-1.5-.2-2.1-.7-.6-.5-1.1-1.1-1.3-1.8Z"/>
        <path class="st0" d="M331.7,113.6c-.7,0-1.3-.3-1.8-.8-.5-.5-.8-1.1-.8-1.8v-28.4c0-.7.3-1.3.8-1.8.5-.5,1.1-.8,1.8-.8h16.3c.7,0,1.3.3,1.8.8.5.5.8,1.1.8,1.8v1.1c0,.7-.3,1.3-.8,1.8-.5.5-1.1.8-1.8.8h-10.7c-.2,0-.4.1-.4.4v6.1c0,.3.1.4.4.4h9.8c.7,0,1.3.3,1.8.8.5.5.8,1.1.8,1.8v.7c0,.7-.3,1.3-.8,1.8-.5.5-1.1.8-1.8.8h-9.8c-.2,0-.4.1-.4.4v7.5c0,.2.1.4.4.4h10.7c.7,0,1.3.3,1.8.8.5.5.8,1.1.8,1.8v1.1c0,.7-.3,1.3-.8,1.8-.5.5-1.1.8-1.8.8h-16.3Z"/>
        <path class="st0" d="M359.8,113.6c-.7,0-1.3-.3-1.8-.8-.5-.5-.8-1.1-.8-1.8v-28.2c0-.8.3-1.4.8-2,.5-.6,1.1-.9,1.9-.9,2.7-.3,5.5-.4,8.4-.4,4.6,0,8,.9,10.3,2.6,2.3,1.7,3.4,4.2,3.4,7.4s-.6,3.9-1.8,5.6c-1.2,1.6-2.8,2.8-4.7,3.5,0,0,0,0,0,0,0,0,0,0,0,0,1.5.9,2.8,2.7,3.8,5.4l2.6,7c.2.6.1,1.1-.2,1.7-.4.5-.9.8-1.5.8h-2.8c-.8,0-1.5-.2-2.2-.7-.6-.5-1.1-1.1-1.3-1.8l-2.3-6.6c-.4-1.3-1-2.2-1.6-2.6-.6-.5-1.6-.7-2.9-.7h-1.9c-.2,0-.4.1-.4.4v9.4c0,.7-.3,1.3-.8,1.8s-1.1.8-1.8.8h-2.4ZM364.9,86.1v8.9c0,.3.1.4.4.4h2.2c2.2,0,3.8-.5,4.9-1.4,1.1-.9,1.7-2.2,1.7-3.8,0-3.2-2.1-4.8-6.3-4.8s-1.8,0-2.5.2c-.3,0-.4.2-.4.5Z"/>
        <path class="st0" d="M387.4,113.6c-.6,0-1.2-.3-1.5-.8-.4-.5-.5-1.1-.3-1.7l9.3-28.7c.2-.7.7-1.3,1.3-1.8.6-.5,1.3-.7,2.1-.7h3c.8,0,1.5.2,2.2.7.6.5,1.1,1.1,1.3,1.8l9.3,28.7c.2.6.1,1.2-.3,1.7-.4.5-.9.8-1.5.8h-3.1c-.8,0-1.5-.2-2.1-.7-.6-.5-1-1.1-1.2-1.8l-1.1-4.4c0-.2-.2-.4-.5-.4h-9.2c-.2,0-.4.1-.5.4l-1.1,4.4c-.2.7-.6,1.3-1.2,1.8-.6.5-1.3.7-2.1.7h-2.9ZM399.7,86.7l-3.4,13.2c0,0,0,.2,0,.3,0,0,.2.1.3.1h6.2c0,0,.2,0,.3-.1s0-.2,0-.3l-3.4-13.2s0,0,0,0,0,0,0,0Z"/>
        <path class="st0" d="M301.2,163.4c-.7,0-1.3-.3-1.8-.8-.5-.5-.8-1.1-.8-1.8v-28.2c0-.7.2-1.4.7-2,.5-.6,1.1-.9,1.8-1,2.6-.2,5.1-.4,7.6-.4,9.8,0,14.8,3.7,14.8,11s-1.1,7-3.4,9c-2.3,2-5.6,3.1-10.1,3.1s-2.3,0-3.3-.1c-.3,0-.4.1-.4.4v8.2c0,.7-.3,1.3-.8,1.8s-1.1.8-1.8.8h-2.4ZM306.2,136v10c0,.2.1.4.4.4,1,.1,1.9.2,2.5.2,2.2,0,3.9-.5,5.1-1.5,1.2-1,1.8-2.5,1.8-4.3,0-3.7-2.3-5.5-7-5.5s-1.6,0-2.5.2c-.2,0-.4.2-.4.5Z"/>
        <path class="st0" d="M330.7,163.4c-.7,0-1.3-.3-1.8-.8-.5-.5-.8-1.1-.8-1.8v-28.4c0-.7.3-1.3.8-1.8.5-.5,1.1-.8,1.8-.8h16.3c.7,0,1.3.3,1.8.8.5.5.8,1.1.8,1.8v1.1c0,.7-.3,1.3-.8,1.8-.5.5-1.1.8-1.8.8h-10.7c-.2,0-.4.1-.4.4v6.1c0,.3.1.4.4.4h9.8c.7,0,1.3.3,1.8.8.5.5.8,1.1.8,1.8v.7c0,.7-.3,1.3-.8,1.8-.5.5-1.1.8-1.8.8h-9.8c-.2,0-.4.1-.4.4v7.5c0,.2.1.4.4.4h10.7c.7,0,1.3.3,1.8.8.5.5.8,1.1.8,1.8v1.1c0,.7-.3,1.3-.8,1.8-.5.5-1.1.8-1.8.8h-16.3Z"/>
        <path class="st0" d="M358.8,163.4c-.7,0-1.3-.3-1.8-.8-.5-.5-.8-1.1-.8-1.8v-28.4c0-.7.3-1.3.8-1.8.5-.5,1.1-.8,1.8-.8h2.3c1.8,0,3,.8,3.8,2.3l9.7,18.3s0,0,0,0,0,0,0,0v-18c0-.7.3-1.3.8-1.8.5-.5,1.1-.8,1.8-.8h2.3c.7,0,1.3.3,1.8.8.5.5.8,1.1.8,1.8v28.4c0,.7-.3,1.3-.8,1.8s-1.1.8-1.8.8h-2.3c-1.8,0-3-.8-3.8-2.3l-9.7-18.3s0,0,0,0,0,0,0,0v18c0,.7-.3,1.3-.8,1.8s-1.1.8-1.8.8h-2.3ZM376,119.2h.3c.7,0,1.4.3,1.9.8.5.5.7,1.1.6,1.8-.4,3.6-2,5.4-4.7,5.4s-3.6-.7-5.8-2.1c-1.2-.7-2.1-1.1-2.6-1.1s-.6.2-.8.6c-.6,1.7-1.5,2.6-2.9,2.6h0c-.7,0-1.3-.3-1.8-.8-.5-.5-.7-1.1-.7-1.8.4-3.9,2-5.9,4.7-5.9s3.6.7,5.8,2.1c1.2.7,2.1,1.1,2.6,1.1s.6-.1.7-.4c.3-.5.5-.9.7-1.1.2-.3.5-.5.8-.8.4-.3.8-.4,1.2-.4Z"/>
        <path class="st0" d="M388.8,163.4c-.6,0-1.2-.3-1.5-.8-.4-.5-.5-1.1-.3-1.7l9.3-28.7c.2-.7.7-1.3,1.3-1.8.6-.5,1.3-.7,2.1-.7h3c.8,0,1.5.2,2.2.7.6.5,1.1,1.1,1.3,1.8l9.3,28.7c.2.6.1,1.2-.3,1.7-.4.5-.9.8-1.5.8h-3.1c-.8,0-1.5-.2-2.1-.7-.6-.5-1-1.1-1.2-1.8l-1.1-4.4c0-.2-.2-.4-.5-.4h-9.2c-.2,0-.4.1-.5.4l-1.1,4.4c-.2.7-.6,1.3-1.2,1.8-.6.5-1.3.7-2.1.7h-2.9ZM401.1,136.6l-3.4,13.2c0,0,0,.2,0,.3,0,0,.2.1.3.1h6.2c0,0,.2,0,.3-.1s0-.2,0-.3l-3.4-13.2s0,0,0,0,0,0,0,0Z"/>
        <path class="st0" d="M422.4,163.4c-.7,0-1.3-.3-1.8-.8-.5-.5-.8-1.1-.8-1.8v-28.4c0-.7.3-1.3.8-1.8.5-.5,1.1-.8,1.8-.8h2.9c.7,0,1.3.3,1.8.8.5.5.8,1.1.8,1.8v24.2c0,.2.1.4.4.4h11.2c.7,0,1.3.3,1.8.8.5.5.8,1.1.8,1.8v1.2c0,.7-.3,1.3-.8,1.8-.5.5-1.1.8-1.8.8h-17.1Z"/>
        <path class="st0" d="M470.9,159.3c-2.8,3.1-6.7,4.6-11.5,4.6s-8.7-1.5-11.5-4.6c-2.8-3.1-4.2-7.3-4.2-12.7s1.4-9.6,4.2-12.7c2.8-3.1,6.7-4.6,11.5-4.6s8.7,1.5,11.5,4.6c2.8,3.1,4.2,7.3,4.2,12.7s-1.4,9.6-4.2,12.7ZM467.1,146.6c0-7.2-2.6-10.8-7.7-10.8s-7.7,3.6-7.7,10.8,2.6,10.8,7.7,10.8,7.7-3.6,7.7-10.8Z"/>
        <path class="st0" d="M481.2,163.4c-.7,0-1.3-.3-1.8-.8-.5-.5-.8-1.1-.8-1.8v-1.1c0-1.8.5-3.4,1.4-4.8l12.7-18.7h0s0,0,0,0c0,0,0,0,0,0h-11.5c-.7,0-1.3-.3-1.8-.8-.5-.5-.8-1.1-.8-1.8v-1.1c0-.7.3-1.3.8-1.8.5-.5,1.1-.8,1.8-.8h18.2c.7,0,1.3.3,1.8.8.5.5.8,1.1.8,1.8v1.1c0,1.8-.5,3.4-1.4,4.8l-12.7,18.7h0s0,0,0,0c0,0,0,0,0,0h11.5c.7,0,1.3.3,1.8.8.5.5.8,1.1.8,1.8v1.1c0,.7-.3,1.3-.8,1.8-.5.5-1.1.8-1.8.8h-18.2Z"/>
        <path class="st0" d="M508.2,163.4c-.6,0-1.2-.3-1.5-.8-.4-.5-.5-1.1-.3-1.7l9.3-28.7c.2-.7.7-1.3,1.3-1.8.6-.5,1.3-.7,2.1-.7h3c.8,0,1.5.2,2.2.7.6.5,1.1,1.1,1.3,1.8l9.3,28.7c.2.6.1,1.2-.3,1.7-.4.5-.9.8-1.5.8h-3.1c-.8,0-1.5-.2-2.1-.7-.6-.5-1-1.1-1.2-1.8l-1.1-4.4c0-.2-.2-.4-.5-.4h-9.2c-.2,0-.4.1-.5.4l-1.1,4.4c-.2.7-.6,1.3-1.2,1.8-.6.5-1.3.7-2.1.7h-2.9ZM520.5,136.6l-3.4,13.2c0,0,0,.2,0,.3,0,0,.2.1.3.1h6.2c0,0,.2,0,.3-.1s0-.2,0-.3l-3.4-13.2s0,0,0,0,0,0,0,0Z"/>
      </g>
    </g>
    <g>
      <path class="st0" d="M304.9,193.4c-1.7,0-3.1-.6-4.1-1.7-1-1.2-1.5-2.8-1.5-4.9s.5-3.7,1.5-4.9,2.3-1.7,4.1-1.7,1.7,0,2.5.3c.2,0,.3.1.4.3.1.2.2.3.2.5s0,.3-.2.4c-.1,0-.3.1-.4,0-.7-.2-1.5-.3-2.3-.3-1.3,0-2.4.5-3.1,1.4-.8,1-1.1,2.3-1.1,4s.4,3,1.2,4c.8,1,1.8,1.4,3.1,1.4s1.7-.1,2.4-.3c.2,0,.3,0,.4,0,.1,0,.2.2.2.4s0,.4-.2.5c-.1.1-.3.2-.4.3-.8.2-1.6.3-2.5.3Z"/>
      <path class="st0" d="M314.4,193.4c-1.4,0-2.6-.4-3.3-1.2-.8-.8-1.1-2-1.1-3.6s.4-2.8,1.1-3.6c.7-.8,1.7-1.2,3-1.2,2.3,0,3.6,1.4,3.7,4.1,0,.3,0,.5-.3.7s-.5.3-.7.3h-5.2c0,0-.1,0-.1.2.1,2.2,1.2,3.2,3.2,3.2s1.4-.1,2.1-.4c.1,0,.3,0,.4,0,.1,0,.2.2.2.3,0,.4-.2.6-.5.7-.8.2-1.5.3-2.2.3ZM314,184.9c-1.6,0-2.5,1-2.7,2.9,0,0,0,.1.2.1h4.8c0,0,.1,0,.1-.1,0-1.9-.9-2.9-2.4-2.9Z"/>
      <path class="st0" d="M321,193.1c-.1.1-.3.2-.5.2s-.3,0-.5-.2c-.1-.1-.2-.3-.2-.5v-7.9c0-.2,0-.3.2-.5s.3-.2.5-.2.3,0,.5.2c.1.1.2.3.2.5v.7s0,0,0,0,0,0,0,0c.8-1,1.9-1.5,3-1.5s1.8.3,2.3.9.7,1.6.7,3v4.8c0,.2,0,.3-.2.5-.1.1-.3.2-.5.2s-.3,0-.5-.2c-.1-.1-.2-.3-.2-.5v-4.6c0-1.2-.2-2-.5-2.4-.3-.4-.9-.6-1.6-.6s-1.2.3-1.8.9c-.6.6-.9,1.2-.9,1.8v5c0,.2,0,.3-.2.5Z"/>
      <path class="st0" d="M329.5,185.5c-.2,0-.3,0-.4-.2-.1-.1-.2-.2-.2-.4s0-.3.2-.4c.1-.1.2-.2.4-.2h1.3c.1,0,.2,0,.2-.2v-2.5c0-.2,0-.3.2-.5s.3-.2.5-.2.3,0,.5.2c.1.1.2.3.2.5v2.5c0,.1,0,.2.2.2h2.7c.2,0,.3,0,.4.2s.2.2.2.4,0,.3-.2.4-.2.2-.4.2h-2.7c-.1,0-.2,0-.2.2v4.7c0,.8.1,1.4.3,1.7.2.3.7.4,1.3.4s.7,0,.9,0c.1,0,.2,0,.4,0s.2.2.2.3,0,.3-.2.4c-.1.1-.2.2-.4.2-.3,0-.7,0-1.2,0-1,0-1.8-.2-2.1-.6-.4-.4-.6-1.2-.6-2.4v-4.8c0-.1,0-.2-.2-.2h-1.3Z"/>
      <path class="st0" d="M339.5,193c-.1.1-.3.2-.5.2s-.4,0-.5-.2c-.1-.1-.2-.3-.2-.5v-7.8c0-.2,0-.3.2-.5.1-.1.3-.2.5-.2s.3,0,.5.2.2.3.2.5v1.4s0,0,0,0c0,0,0,0,0,0,.4-.6.9-1.1,1.5-1.4.6-.4,1.4-.6,2.2-.6.2,0,.3,0,.4.2s.2.3.2.4,0,.3-.2.4c-.1.1-.3.2-.4.2-1.2,0-2.1.4-2.7,1-.6.6-1,1.5-1,2.6v3.6c0,.2,0,.4-.2.5Z"/>
      <path class="st0" d="M352.6,192.2c-.7.8-1.8,1.3-3.1,1.3s-2.4-.4-3.1-1.3c-.7-.8-1.1-2-1.1-3.5s.4-2.7,1.1-3.5c.7-.8,1.8-1.3,3.1-1.3s2.4.4,3.1,1.3c.7.8,1.1,2,1.1,3.5s-.4,2.7-1.1,3.5ZM352.3,188.7c0-2.5-.9-3.7-2.8-3.7s-2.8,1.2-2.8,3.7.9,3.7,2.8,3.7,2.8-1.2,2.8-3.7Z"/>
      <path class="st0" d="M361.7,193.3c-.3,0-.5-.1-.7-.3-.2-.2-.3-.4-.3-.7v-10.9c0-.3.1-.5.3-.7.2-.2.4-.3.7-.3h5.9c.2,0,.3,0,.4.2.1.1.2.3.2.4s0,.3-.2.4c-.1.1-.3.2-.4.2h-5.4c-.1,0-.2,0-.2.1v3.9c0,0,0,.1.2.1h5.1c.2,0,.3,0,.4.2.1.1.2.2.2.4s0,.3-.2.4-.2.2-.4.2h-5.1c-.1,0-.2,0-.2.2v4.9c0,0,0,.1.2.1h5.4c.2,0,.3,0,.4.2.1.1.2.3.2.4s0,.3-.2.4c-.1.1-.3.2-.4.2h-5.9Z"/>
      <path class="st0" d="M373.9,193.4c-1.1,0-2-.4-2.7-1.3-.7-.9-1-2-1-3.5s.3-2.7,1-3.5c.7-.8,1.6-1.2,2.7-1.2s2.1.5,2.9,1.4c0,0,0,0,0,0s0,0,0,0v-4.6c0-.2,0-.3.2-.5.1-.1.3-.2.5-.2s.3,0,.5.2.2.3.2.5v11.9c0,.2,0,.3-.2.5-.1.1-.3.2-.5.2s-.3,0-.5-.2c-.1-.1-.2-.3-.2-.5v-.7s0,0,0,0,0,0,0,0c-.8,1-1.8,1.5-3,1.5ZM374.2,184.9c-1.8,0-2.7,1.2-2.7,3.7s.2,2.2.7,2.8,1.1.9,2,.9,1.3-.2,1.8-.7c.5-.5.8-1,.8-1.6v-2.7c0-.6-.3-1.1-.8-1.6s-1.2-.7-1.8-.7Z"/>
      <path class="st0" d="M383.8,193.4c-1,0-1.8-.3-2.3-.8s-.7-1.5-.7-2.8v-5c0-.2,0-.3.2-.5.1-.1.3-.2.5-.2s.3,0,.5.2.2.3.2.5v4.9c0,1.1.2,1.8.5,2.2.3.4.8.6,1.5.6s1.2-.3,1.8-.8c.6-.5.8-1.1.8-1.8v-5c0-.2,0-.3.2-.5s.3-.2.5-.2.3,0,.5.2c.1.1.2.3.2.5v7.9c0,.2,0,.3-.2.5-.1.1-.3.2-.5.2s-.3,0-.5-.2c-.1-.1-.2-.3-.2-.5v-.7s0,0,0,0,0,0,0,0c-.8,1-1.8,1.5-3,1.5Z"/>
      <path class="st0" d="M394.5,193.4c-1.4,0-2.5-.4-3.2-1.2-.7-.8-1.1-2-1.1-3.6s.4-2.7,1.1-3.6c.7-.8,1.7-1.2,3.1-1.2s1.3,0,1.9.2c.2,0,.3.1.4.3.1.1.2.3.2.5s0,.3-.2.3c-.1,0-.3.1-.4,0-.6-.2-1.2-.2-1.9-.2-1.9,0-2.8,1.2-2.8,3.7s.2,2.2.7,2.8,1.2.9,2.3.9,1.3,0,1.8-.3c.1,0,.3,0,.4,0s.2.2.2.3,0,.3-.2.5c-.1.1-.2.2-.4.3-.6.1-1.2.2-1.9.2Z"/>
      <path class="st0" d="M401.8,193.4c-.8,0-1.5-.3-2-.8s-.8-1.2-.8-2,.4-1.8,1.2-2.4c.8-.6,2-.9,3.7-.9h.9c.1,0,.2,0,.2-.1v-.3c0-.7-.2-1.2-.5-1.5-.3-.3-.9-.4-1.7-.4s-1.7.2-2.6.5c-.1,0-.3,0-.4,0-.1,0-.2-.2-.2-.4,0-.4.2-.7.6-.8.9-.2,1.7-.4,2.6-.4,1.4,0,2.3.2,2.8.7s.8,1.4.8,2.7v5.3c0,.2,0,.3-.2.5-.1.1-.3.2-.5.2s-.3,0-.5-.2c-.1-.1-.2-.3-.2-.5v-.9s0,0,0,0c0,0,0,0,0,0-.7,1.1-1.8,1.7-3.2,1.7ZM404,188.4c-1.2,0-2,.2-2.6.6s-.9.9-.9,1.6.2,1,.5,1.3c.3.3.7.5,1.2.5.8,0,1.6-.3,2.1-.8.6-.6.8-1.3.8-2.2v-.7c0-.1,0-.2-.2-.2h-.9Z"/>
      <path class="st0" d="M408.5,185.5c-.2,0-.3,0-.4-.2-.1-.1-.2-.2-.2-.4s0-.3.2-.4c.1-.1.2-.2.4-.2h1.3c.1,0,.2,0,.2-.2v-2.5c0-.2,0-.3.2-.5s.3-.2.5-.2.3,0,.5.2c.1.1.2.3.2.5v2.5c0,.1,0,.2.2.2h2.7c.2,0,.3,0,.4.2s.2.2.2.4,0,.3-.2.4-.2.2-.4.2h-2.7c-.1,0-.2,0-.2.2v4.7c0,.8.1,1.4.3,1.7.2.3.7.4,1.3.4s.7,0,.9,0c.1,0,.2,0,.4,0s.2.2.2.3,0,.3-.2.4c-.1.1-.2.2-.4.2-.3,0-.7,0-1.2,0-1,0-1.8-.2-2.1-.6-.4-.4-.6-1.2-.6-2.4v-4.8c0-.1,0-.2-.2-.2h-1.3Z"/>
      <path class="st0" d="M419.2,181.7c-.1.1-.3.2-.5.2s-.4,0-.5-.2-.2-.3-.2-.5v-.5c0-.2,0-.4.2-.5.1-.1.3-.2.5-.2s.4,0,.5.2c.1.1.2.3.2.5v.5c0,.2,0,.4-.2.5ZM419.2,193c-.1.1-.3.2-.5.2s-.4,0-.5-.2c-.1-.1-.2-.3-.2-.5v-7.8c0-.2,0-.4.2-.5.1-.1.3-.2.5-.2s.4,0,.5.2c.1.1.2.3.2.5v7.8c0,.2,0,.4-.2.5Z"/>
      <path class="st0" d="M424.9,192.4l-2.7-7.6c0-.2,0-.3,0-.5s.2-.2.4-.2.4,0,.6.2.3.3.4.5l2.5,7.7s0,0,0,0c0,0,0,0,0,0l2.5-7.7c0-.2.2-.4.4-.5.2-.1.4-.2.6-.2s.3,0,.4.2c.1.1.1.3,0,.5l-2.8,7.7c0,.3-.3.5-.5.6-.2.2-.5.2-.7.2s-.5,0-.8-.2c-.2-.2-.4-.4-.5-.6Z"/>
      <path class="st0" d="M438.5,192.2c-.7.8-1.8,1.3-3.1,1.3s-2.4-.4-3.1-1.3c-.7-.8-1.1-2-1.1-3.5s.4-2.7,1.1-3.5c.7-.8,1.8-1.3,3.1-1.3s2.4.4,3.1,1.3c.7.8,1.1,2,1.1,3.5s-.4,2.7-1.1,3.5ZM438.2,188.7c0-2.5-.9-3.7-2.8-3.7s-2.8,1.2-2.8,3.7.9,3.7,2.8,3.7,2.8-1.2,2.8-3.7Z"/>
      <path class="st0" d="M448.4,193c-.1.1-.3.2-.5.2s-.4,0-.5-.2-.2-.3-.2-.5v-11.4c0-.2,0-.4.2-.5s.3-.2.5-.2.4,0,.5.2c.1.1.2.3.2.5v11.4c0,.2,0,.4-.2.5Z"/>
      <path class="st0" d="M453.1,193.1c-.1.1-.3.2-.5.2s-.3,0-.5-.2c-.1-.1-.2-.3-.2-.5v-7.9c0-.2,0-.3.2-.5s.3-.2.5-.2.3,0,.5.2c.1.1.2.3.2.5v.7s0,0,0,0,0,0,0,0c.8-1,1.9-1.5,3-1.5s1.8.3,2.3.9.7,1.6.7,3v4.8c0,.2,0,.3-.2.5-.1.1-.3.2-.5.2s-.3,0-.5-.2c-.1-.1-.2-.3-.2-.5v-4.6c0-1.2-.2-2-.5-2.4-.3-.4-.9-.6-1.6-.6s-1.2.3-1.8.9c-.6.6-.9,1.2-.9,1.8v5c0,.2,0,.3-.2.5Z"/>
      <path class="st0" d="M461.7,185.5c-.2,0-.3,0-.4-.2-.1-.1-.2-.2-.2-.4s0-.3.2-.4c.1-.1.2-.2.4-.2h1.3c.1,0,.2,0,.2-.2v-2.5c0-.2,0-.3.2-.5s.3-.2.5-.2.3,0,.5.2c.1.1.2.3.2.5v2.5c0,.1,0,.2.2.2h2.7c.2,0,.3,0,.4.2s.2.2.2.4,0,.3-.2.4-.2.2-.4.2h-2.7c-.1,0-.2,0-.2.2v4.7c0,.8.1,1.4.3,1.7.2.3.7.4,1.3.4s.7,0,.9,0c.1,0,.2,0,.4,0s.2.2.2.3,0,.3-.2.4c-.1.1-.2.2-.4.2-.3,0-.7,0-1.2,0-1,0-1.8-.2-2.1-.6-.4-.4-.6-1.2-.6-2.4v-4.8c0-.1,0-.2-.2-.2h-1.3Z"/>
      <path class="st0" d="M474.1,193.4c-1.4,0-2.6-.4-3.3-1.2-.8-.8-1.1-2-1.1-3.6s.4-2.8,1.1-3.6c.7-.8,1.7-1.2,3-1.2,2.3,0,3.6,1.4,3.7,4.1,0,.3,0,.5-.3.7s-.5.3-.7.3h-5.2c0,0-.1,0-.1.2.1,2.2,1.2,3.2,3.2,3.2s1.4-.1,2.1-.4c.1,0,.3,0,.4,0,.1,0,.2.2.2.3,0,.4-.2.6-.5.7-.8.2-1.5.3-2.2.3ZM473.7,184.9c-1.6,0-2.5,1-2.7,2.9,0,0,0,.1.2.1h4.8c0,0,.1,0,.1-.1,0-1.9-.9-2.9-2.4-2.9Z"/>
      <path class="st0" d="M482.8,193.3c-1.1,0-1.9-.4-2.6-1.2-.7-.8-1-2-1-3.5s.3-2.7,1-3.5,1.5-1.1,2.6-1.1,2.2.5,2.9,1.5c0,0,0,0,0,0s0,0,0,0v-.7c0-.2,0-.3.2-.5.1-.1.3-.2.5-.2s.3,0,.5.2c.1.1.2.3.2.5v8c0,1.6-.3,2.8-1,3.5-.7.7-1.8,1.1-3.2,1.1s-1.4,0-2-.2c-.4,0-.6-.3-.6-.7s0-.3.2-.3c.1,0,.2-.1.4,0,.7.2,1.3.3,2.1.3,1,0,1.8-.3,2.2-.8.5-.5.7-1.4.7-2.7v-.9s0,0,0,0,0,0,0,0c-.7.9-1.7,1.3-2.9,1.3ZM483.1,184.9c-1.7,0-2.6,1.2-2.6,3.6s.2,2.1.7,2.7c.5.6,1.1.9,1.9.9s1.3-.3,1.8-.8c.5-.5.8-1.1.8-1.8v-2.1c0-.7-.3-1.3-.8-1.8-.5-.5-1.1-.8-1.8-.8Z"/>
      <path class="st0" d="M490.9,193c-.1.1-.3.2-.5.2s-.4,0-.5-.2c-.1-.1-.2-.3-.2-.5v-7.8c0-.2,0-.3.2-.5.1-.1.3-.2.5-.2s.3,0,.5.2.2.3.2.5v1.4s0,0,0,0c0,0,0,0,0,0,.4-.6.9-1.1,1.5-1.4.6-.4,1.4-.6,2.2-.6.2,0,.3,0,.4.2s.2.3.2.4,0,.3-.2.4c-.1.1-.3.2-.4.2-1.2,0-2.1.4-2.7,1-.6.6-1,1.5-1,2.6v3.6c0,.2,0,.4-.2.5Z"/>
      <path class="st0" d="M499.4,193.4c-.8,0-1.5-.3-2-.8s-.8-1.2-.8-2,.4-1.8,1.2-2.4c.8-.6,2-.9,3.7-.9h.9c.1,0,.2,0,.2-.1v-.3c0-.7-.2-1.2-.5-1.5-.3-.3-.9-.4-1.7-.4s-1.7.2-2.6.5c-.1,0-.3,0-.4,0-.1,0-.2-.2-.2-.4,0-.4.2-.7.6-.8.9-.2,1.7-.4,2.6-.4,1.4,0,2.3.2,2.8.7s.8,1.4.8,2.7v5.3c0,.2,0,.3-.2.5-.1.1-.3.2-.5.2s-.3,0-.5-.2c-.1-.1-.2-.3-.2-.5v-.9s0,0,0,0c0,0,0,0,0,0-.7,1.1-1.8,1.7-3.2,1.7ZM501.6,188.4c-1.2,0-2,.2-2.6.6s-.9.9-.9,1.6.2,1,.5,1.3c.3.3.7.5,1.2.5.8,0,1.6-.3,2.1-.8.6-.6.8-1.3.8-2.2v-.7c0-.1,0-.2-.2-.2h-.9Z"/>
      <path class="st0" d="M508.5,193c-.1.1-.3.2-.5.2s-.4,0-.5-.2c-.1-.1-.2-.3-.2-.5v-11.8c0-.2,0-.4.2-.5.1-.1.3-.2.5-.2s.4,0,.5.2c.1.1.2.3.2.5v11.8c0,.2,0,.4-.2.5Z"/>
    </g>
  </g>
</svg>